<svg xmlns="http://www.w3.org/2000/svg" viewBox="0 0 858.13 861.53"><defs><style>.cls-1{font-size:25px;font-family:OpenSans-Regular, Open Sans;}.cls-2{fill:#fff;}.cls-3{fill:#738ad9;}.cls-4,.cls-5{fill:none;stroke-miterlimit:10;stroke-width:4px;}.cls-4{stroke:#738ad9;stroke-linecap:round;}.cls-5{stroke:#98b9df;}</style></defs><title>slider pagesAsset 36@1x</title><g id="Layer_2" data-name="Layer 2"><g id="Startup_page" data-name="Startup page"><g id="illustration_slider_2" data-name="illustration slider 2"><text class="cls-1" transform="translate(104.56 824.53)">Accessible across any platform running on any device.</text><rect class="cls-2" x="333.55" y="424.08" width="320.4" height="185.86" rx="5.42" ry="5.42"/><path class="cls-3" d="M560.46,685.19a6.85,6.85,0,0,1-6.84,6.84h-122a6.85,6.85,0,0,1-6.84-6.84,6.85,6.85,0,0,1,6.84-6.84H473V649.27h40.67v29.08h39.91A6.85,6.85,0,0,1,560.46,685.19Z"/><path class="cls-3" d="M653.76,412.11H332.61a12.17,12.17,0,0,0-12.17,12.17v206a12.17,12.17,0,0,0,12.17,12.17H653.76a12.17,12.17,0,0,0,12.17-12.17v-206A12.17,12.17,0,0,0,653.76,412.11ZM503.48,631.88H486.31a5.1,5.1,0,0,1,0-10.21h17.17a5.1,5.1,0,0,1,0,10.21ZM654,604.52a5.42,5.42,0,0,1-5.42,5.42H339a5.42,5.42,0,0,1-5.42-5.42v-175a5.42,5.42,0,0,1,5.42-5.42H648.54a5.42,5.42,0,0,1,5.42,5.42Z"/><path class="cls-3" d="M736.58,494.2H626.11a9.22,9.22,0,0,0-9.21,9.21v179.4a9.22,9.22,0,0,0,9.21,9.21H736.58a9.22,9.22,0,0,0,9.21-9.21V503.42A9.22,9.22,0,0,0,736.58,494.2Zm-71.22,9.12h33.07a1.71,1.71,0,1,1,0,3.42H665.36a1.71,1.71,0,0,1,0-3.42ZM681.89,688a6.84,6.84,0,1,1,6.84-6.84A6.85,6.85,0,0,1,681.89,688Zm57.66-18.37H623.14V514.84H739.55Z"/><rect class="cls-2" x="623.14" y="514.84" width="116.42" height="154.83"/><path class="cls-3" d="M371.56,489.64H114.25a13.88,13.88,0,0,0-13.88,13.88V646.8a13.88,13.88,0,0,0,13.88,13.88h257.3a13.88,13.88,0,0,0,13.88-13.88V503.52A13.88,13.88,0,0,0,371.56,489.64Zm3,153.17a7,7,0,0,1-7,7H119.38a7,7,0,0,1-7-7V508.65a7,7,0,0,1,7-7H367.57a7,7,0,0,1,7,7Z"/><rect class="cls-2" x="112.35" y="501.61" width="262.25" height="148.23" rx="7.04" ry="7.04"/><path class="cls-3" d="M403.11,678.35H258.45a5.1,5.1,0,0,1-4.68,7.12H236.6a5.1,5.1,0,0,1-4.68-7.12H88.4a6.85,6.85,0,0,0-6.84,6.84A6.85,6.85,0,0,0,88.4,692h314.7a6.85,6.85,0,0,0,6.84-6.84A6.85,6.85,0,0,0,403.11,678.35Z"/><line class="cls-4" x1="128.54" y1="699.03" x2="701.35" y2="699.05"/><line class="cls-4" x1="715.51" y1="698.53" x2="743.85" y2="698.54"/><line class="cls-4" x1="86.66" y1="699.03" x2="114.99" y2="699.03"/><line class="cls-4" x1="755.55" y1="699.05" x2="771.56" y2="699.05"/><line class="cls-4" x1="59.56" y1="699.03" x2="75.58" y2="699.03"/><line class="cls-5" x1="0.04" y1="200.31" x2="25.09" y2="200.75"/><line class="cls-5" x1="12.55" y1="188" x2="12.57" y2="213.06"/><line class="cls-5" x1="717.04" y1="25.31" x2="742.09" y2="25.75"/><line class="cls-5" x1="729.55" y1="13" x2="729.57" y2="38.06"/><line class="cls-5" x1="627.04" y1="338.31" x2="652.09" y2="338.75"/><line class="cls-5" x1="639.55" y1="326" x2="639.57" y2="351.06"/><line class="cls-5" x1="833.04" y1="281.31" x2="858.09" y2="281.75"/><line class="cls-5" x1="845.55" y1="269" x2="845.57" y2="294.06"/><line class="cls-5" x1="507.04" y1="12.31" x2="532.09" y2="12.75"/><line class="cls-5" x1="519.55" x2="519.57" y2="25.06"/><line class="cls-5" x1="456.04" y1="195.31" x2="481.09" y2="195.75"/><line class="cls-5" x1="468.55" y1="183" x2="468.57" y2="208.06"/><line class="cls-5" x1="209.04" y1="338.31" x2="234.09" y2="338.75"/><line class="cls-5" x1="221.55" y1="326" x2="221.57" y2="351.06"/><line class="cls-5" x1="13.04" y1="469.31" x2="38.09" y2="469.75"/><line class="cls-5" x1="25.55" y1="457" x2="25.57" y2="482.06"/><line class="cls-5" x1="209.04" y1="12.31" x2="234.09" y2="12.75"/><line class="cls-5" x1="221.55" x2="221.57" y2="25.06"/><path class="cls-3" d="M633.34,560.91H581.07a9.22,9.22,0,0,0-9.21,9.21v112.7a9.22,9.22,0,0,0,9.21,9.21h52.27a9.22,9.22,0,0,0,9.21-9.21V570.12A9.22,9.22,0,0,0,633.34,560.91Zm-32.79,7.23H615a.75.75,0,0,1,0,1.51H600.55a.75.75,0,0,1,0-1.51ZM607.78,688a3.42,3.42,0,1,1,3.42-3.42A3.42,3.42,0,0,1,607.78,688Zm31.36-10.83H575.28V574.59h63.85Z"/><rect class="cls-2" x="575.28" y="574.59" width="63.85" height="102.62"/></g></g></g></svg>